<?xml version="1.0" encoding="UTF-8" standalone="no"?>
<!DOCTYPE svg PUBLIC "-//W3C//DTD SVG 1.1//EN"
 "http://www.w3.org/Graphics/SVG/1.1/DTD/svg11.dtd">
<!-- Generated by graphviz version 2.38.0 (20140413.2041)
 -->
<!-- Title: %3 Pages: 1 -->
<svg width="782pt" height="231pt"
 viewBox="0.00 0.00 781.94 231.00" xmlns="http://www.w3.org/2000/svg" xmlns:xlink="http://www.w3.org/1999/xlink">
<g id="graph0" class="graph" transform="scale(1 1) rotate(0) translate(4 227)">
<title>%3</title>
<polygon fill="#333333" stroke="none" points="-4,4 -4,-227 777.941,-227 777.941,4 -4,4"/>
<text text-anchor="middle" x="386.971" y="-9.2" font-family="Times,serif" font-size="16.00" fill="white">Network Map</text>
<!-- SW2 &#160;&#160; -->
<g id="node1" class="node"><title>SW2 &#160;&#160;</title>
<polygon fill="#006699" stroke="#006699" points="122.441,-223 21.4411,-223 21.4411,-150 122.441,-150 122.441,-223"/>
<text text-anchor="middle" x="71.9411" y="-182.8" font-family="Helvetica,sans-Serif" font-size="14.00" fill="white">SW2 &#160;&#160;</text>
</g>
<!-- SW1 &#160;&#160; -->
<g id="node2" class="node"><title>SW1 &#160;&#160;</title>
<polygon fill="#006699" stroke="#006699" points="368.441,-223 267.441,-223 267.441,-150 368.441,-150 368.441,-223"/>
<text text-anchor="middle" x="317.941" y="-182.8" font-family="Helvetica,sans-Serif" font-size="14.00" fill="white">SW1 &#160;&#160;</text>
</g>
<!-- R1 -->
<g id="node3" class="node"><title>R1</title>
<polygon fill="#006699" stroke="#006699" points="356.441,-99 279.441,-99 279.441,-26 356.441,-26 356.441,-99"/>
<text text-anchor="middle" x="317.941" y="-58.8" font-family="Helvetica,sans-Serif" font-size="14.00" fill="white">R1</text>
</g>
<!-- R1&#45;&#45;SW1 &#160;&#160; -->
<g id="edge4" class="edge"><title>R1&#45;&#45;SW1 &#160;&#160;</title>
<path fill="none" stroke="green" stroke-dasharray="5,2" d="M317.941,-99.1154C317.941,-115.01 317.941,-133.704 317.941,-149.629"/>
<text text-anchor="middle" x="367.941" y="-120.8" font-family="Courier,monospace" font-size="14.00" fill="white"> &#160;&#160;&#160;&#160;&#160;&#160;&#160;&#160;&#160;&#160;&#160;</text>
<text text-anchor="middle" x="288.941" y="-138.429" font-family="Courier,monospace" font-size="14.00" fill="white">Eth 0/1</text>
<text text-anchor="middle" x="288.941" y="-102.915" font-family="Courier,monospace" font-size="14.00" fill="white">Eth 0/0</text>
</g>
<!-- R2 -->
<g id="node4" class="node"><title>R2</title>
<polygon fill="#006699" stroke="#006699" points="172.441,-99 95.4411,-99 95.4411,-26 172.441,-26 172.441,-99"/>
<text text-anchor="middle" x="133.941" y="-58.8" font-family="Helvetica,sans-Serif" font-size="14.00" fill="white">R2</text>
</g>
<!-- R2&#45;&#45;SW2 &#160;&#160; -->
<g id="edge5" class="edge"><title>R2&#45;&#45;SW2 &#160;&#160;</title>
<path fill="none" stroke="green" stroke-dasharray="5,2" d="M95.3707,-88.6726C86.3735,-96.5805 77.9619,-106.13 72.9411,-117 68.303,-127.042 66.9027,-138.828 67,-149.765"/>
<text text-anchor="middle" x="122.941" y="-120.8" font-family="Courier,monospace" font-size="14.00" fill="white"> &#160;&#160;&#160;&#160;&#160;&#160;&#160;&#160;&#160;&#160;&#160;</text>
<text text-anchor="middle" x="33.5" y="-138.565" font-family="Courier,monospace" font-size="14.00" fill="white">Eth 0/11</text>
<text text-anchor="middle" x="66.3707" y="-77.4726" font-family="Courier,monospace" font-size="14.00" fill="white">Eth 0/1</text>
</g>
<!-- R2&#45;&#45;SW1 &#160;&#160; -->
<g id="edge1" class="edge"><title>R2&#45;&#45;SW1 &#160;&#160;</title>
<path fill="none" stroke="green" stroke-dasharray="5,2" d="M171.959,-99.2067C184.789,-110.382 199.523,-122.312 213.941,-132 230.626,-143.211 249.96,-153.752 267.398,-162.464"/>
<text text-anchor="middle" x="263.941" y="-120.8" font-family="Courier,monospace" font-size="14.00" fill="white"> &#160;&#160;&#160;&#160;&#160;&#160;&#160;&#160;&#160;&#160;&#160;</text>
<text text-anchor="middle" x="233.898" y="-166.264" font-family="Courier,monospace" font-size="14.00" fill="white">Eth 0/2&#39;</text>
<text text-anchor="middle" x="142.959" y="-103.007" font-family="Courier,monospace" font-size="14.00" fill="white">Eth 0/0</text>
</g>
<!-- R5 &#160;&#160;&#160; -->
<g id="node5" class="node"><title>R5 &#160;&#160;&#160;</title>
<polygon fill="#006699" stroke="#006699" points="609.441,-223 518.441,-223 518.441,-150 609.441,-150 609.441,-223"/>
<text text-anchor="middle" x="563.941" y="-182.8" font-family="Helvetica,sans-Serif" font-size="14.00" fill="white">R5 &#160;&#160;&#160;</text>
</g>
<!-- R4 &#160;&#160;&#160; -->
<g id="node6" class="node"><title>R4 &#160;&#160;&#160;</title>
<polygon fill="#006699" stroke="#006699" points="732.441,-223 641.441,-223 641.441,-150 732.441,-150 732.441,-223"/>
<text text-anchor="middle" x="686.941" y="-182.8" font-family="Helvetica,sans-Serif" font-size="14.00" fill="white">R4 &#160;&#160;&#160;</text>
</g>
<!-- R3 -->
<g id="node7" class="node"><title>R3</title>
<polygon fill="#006699" stroke="#006699" points="602.441,-99 525.441,-99 525.441,-26 602.441,-26 602.441,-99"/>
<text text-anchor="middle" x="563.941" y="-58.8" font-family="Helvetica,sans-Serif" font-size="14.00" fill="white">R3</text>
</g>
<!-- R3&#45;&#45;SW1 &#160;&#160; -->
<g id="edge2" class="edge"><title>R3&#45;&#45;SW1 &#160;&#160;</title>
<path fill="none" stroke="green" stroke-dasharray="5,2" d="M525.233,-82.6967C483.017,-103.633 415.277,-137.228 368.796,-160.279"/>
<text text-anchor="middle" x="504.941" y="-120.8" font-family="Courier,monospace" font-size="14.00" fill="white"> &#160;&#160;&#160;&#160;&#160;&#160;&#160;&#160;&#160;&#160;&#160;</text>
<text text-anchor="middle" x="402.296" y="-149.079" font-family="Courier,monospace" font-size="14.00" fill="white">Eth 0/3&#39;</text>
<text text-anchor="middle" x="496.233" y="-71.4967" font-family="Courier,monospace" font-size="14.00" fill="white">Eth 0/0</text>
</g>
<!-- R3&#45;&#45;R5 &#160;&#160;&#160; -->
<g id="edge3" class="edge"><title>R3&#45;&#45;R5 &#160;&#160;&#160;</title>
<path fill="none" stroke="green" stroke-dasharray="5,2" d="M563.941,-99.1154C563.941,-115.01 563.941,-133.704 563.941,-149.629"/>
<text text-anchor="middle" x="613.941" y="-120.8" font-family="Courier,monospace" font-size="14.00" fill="white"> &#160;&#160;&#160;&#160;&#160;&#160;&#160;&#160;&#160;&#160;&#160;</text>
<text text-anchor="middle" x="534.941" y="-138.429" font-family="Courier,monospace" font-size="14.00" fill="white">Eth 0/0</text>
<text text-anchor="middle" x="534.941" y="-102.915" font-family="Courier,monospace" font-size="14.00" fill="white">Eth 0/2</text>
</g>
<!-- R3&#45;&#45;R4 &#160;&#160;&#160; -->
<g id="edge6" class="edge"><title>R3&#45;&#45;R4 &#160;&#160;&#160;</title>
<path fill="none" stroke="green" stroke-dasharray="5,2" d="M602.707,-75.8466C623.777,-84.3628 648.76,-97.6806 664.941,-117 672.721,-126.288 677.763,-138.373 681.026,-149.8"/>
<text text-anchor="middle" x="723.941" y="-120.8" font-family="Courier,monospace" font-size="14.00" fill="white"> &#160;&#160;&#160;&#160;&#160;&#160;&#160;&#160;&#160;&#160;&#160;</text>
<text text-anchor="middle" x="647.526" y="-138.6" font-family="Courier,monospace" font-size="14.00" fill="white">Eth 0/0&#39;</text>
<text text-anchor="middle" x="631.707" y="-64.6466" font-family="Courier,monospace" font-size="14.00" fill="white">Eth 0/1</text>
</g>
</g>
</svg>
