<?xml version="1.0" encoding="UTF-8" standalone="no"?>
<!DOCTYPE svg PUBLIC "-//W3C//DTD SVG 1.1//EN"
 "http://www.w3.org/Graphics/SVG/1.1/DTD/svg11.dtd">
<!-- Generated by graphviz version 2.38.0 (20140413.2041)
 -->
<!-- Title: %3 Pages: 1 -->
<svg width="395pt" height="231pt"
 viewBox="0.00 0.00 394.86 231.00" xmlns="http://www.w3.org/2000/svg" xmlns:xlink="http://www.w3.org/1999/xlink">
<g id="graph0" class="graph" transform="scale(1 1) rotate(0) translate(4 227)">
<title>%3</title>
<polygon fill="#333333" stroke="none" points="-4,4 -4,-227 390.861,-227 390.861,4 -4,4"/>
<text text-anchor="middle" x="193.431" y="-9.2" font-family="Times,serif" font-size="16.00" fill="white">Network Map</text>
<!-- R1 -->
<g id="node1" class="node"><title>R1</title>
<polygon fill="#006699" stroke="#006699" points="92.3611,-223 15.3611,-223 15.3611,-150 92.3611,-150 92.3611,-223"/>
<text text-anchor="middle" x="53.8611" y="-182.8" font-family="Helvetica,sans-Serif" font-size="14.00" fill="white">R1</text>
</g>
<!-- R3 -->
<g id="node2" class="node"><title>R3</title>
<polygon fill="#006699" stroke="#006699" points="215.361,-223 138.361,-223 138.361,-150 215.361,-150 215.361,-223"/>
<text text-anchor="middle" x="176.861" y="-182.8" font-family="Helvetica,sans-Serif" font-size="14.00" fill="white">R3</text>
</g>
<!-- R2 -->
<g id="node3" class="node"><title>R2</title>
<polygon fill="#006699" stroke="#006699" points="338.361,-223 261.361,-223 261.361,-150 338.361,-150 338.361,-223"/>
<text text-anchor="middle" x="299.861" y="-182.8" font-family="Helvetica,sans-Serif" font-size="14.00" fill="white">R2</text>
</g>
<!-- R4 -->
<g id="node4" class="node"><title>R4</title>
<polygon fill="#006699" stroke="#006699" points="214.861,-99 138.861,-99 138.861,-26 214.861,-26 214.861,-99"/>
<text text-anchor="middle" x="176.861" y="-58.8" font-family="Helvetica,sans-Serif" font-size="14.00" fill="white">R4</text>
</g>
<!-- R4&#45;&#45;R1 -->
<g id="edge1" class="edge"><title>R4&#45;&#45;R1</title>
<path fill="none" stroke="green" stroke-dasharray="5,2" d="M138.698,-74.5538C116.49,-82.844 89.6509,-96.3697 72.8611,-117 65.3047,-126.285 60.7468,-138.368 58,-149.796"/>
<text text-anchor="middle" x="122.861" y="-120.8" font-family="Courier,monospace" font-size="14.00" fill="white"> &#160;&#160;&#160;&#160;&#160;&#160;&#160;&#160;&#160;&#160;&#160;</text>
<text text-anchor="middle" x="29" y="-138.596" font-family="Courier,monospace" font-size="14.00" fill="white">Eth 0/0</text>
<text text-anchor="middle" x="109.698" y="-63.3538" font-family="Courier,monospace" font-size="14.00" fill="white">Eth 0/1</text>
</g>
<!-- R4&#45;&#45;R3 -->
<g id="edge2" class="edge"><title>R4&#45;&#45;R3</title>
<path fill="none" stroke="green" stroke-dasharray="5,2" d="M176.861,-99.1154C176.861,-115.01 176.861,-133.704 176.861,-149.629"/>
<text text-anchor="middle" x="226.861" y="-120.8" font-family="Courier,monospace" font-size="14.00" fill="white"> &#160;&#160;&#160;&#160;&#160;&#160;&#160;&#160;&#160;&#160;&#160;</text>
<text text-anchor="middle" x="147.861" y="-138.429" font-family="Courier,monospace" font-size="14.00" fill="white">Eth 0/0</text>
<text text-anchor="middle" x="147.861" y="-102.915" font-family="Courier,monospace" font-size="14.00" fill="white">Eth 0/3</text>
</g>
<!-- R4&#45;&#45;R2 -->
<g id="edge3" class="edge"><title>R4&#45;&#45;R2</title>
<path fill="none" stroke="green" stroke-dasharray="5,2" d="M215.13,-75.6463C236.303,-84.1535 261.553,-97.5285 277.861,-117 285.641,-126.288 290.683,-138.373 293.946,-149.8"/>
<text text-anchor="middle" x="336.861" y="-120.8" font-family="Courier,monospace" font-size="14.00" fill="white"> &#160;&#160;&#160;&#160;&#160;&#160;&#160;&#160;&#160;&#160;&#160;</text>
<text text-anchor="middle" x="264.946" y="-138.6" font-family="Courier,monospace" font-size="14.00" fill="white">Eth 0/0</text>
<text text-anchor="middle" x="244.13" y="-64.4463" font-family="Courier,monospace" font-size="14.00" fill="white">Eth 0/2</text>
</g>
</g>
</svg>
