<?xml version="1.0" encoding="UTF-8" standalone="no"?>
<!DOCTYPE svg PUBLIC "-//W3C//DTD SVG 1.1//EN"
 "http://www.w3.org/Graphics/SVG/1.1/DTD/svg11.dtd">
<!-- Generated by graphviz version 2.38.0 (20140413.2041)
 -->
<!-- Title: %3 Pages: 1 -->
<svg width="615pt" height="479pt"
 viewBox="0.00 0.00 614.54 479.00" xmlns="http://www.w3.org/2000/svg" xmlns:xlink="http://www.w3.org/1999/xlink">
<g id="graph0" class="graph" transform="scale(1 1) rotate(0) translate(4 475)">
<title>%3</title>
<polygon fill="#333333" stroke="none" points="-4,4 -4,-475 610.542,-475 610.542,4 -4,4"/>
<text text-anchor="middle" x="303.271" y="-9.2" font-family="Times,serif" font-size="16.00" fill="white">Network Map</text>
<!-- SW1 -->
<g id="node1" class="node"><title>SW1</title>
<polygon fill="#006699" stroke="#006699" points="387.042,-223 298.042,-223 298.042,-150 387.042,-150 387.042,-223"/>
<text text-anchor="middle" x="342.542" y="-182.8" font-family="Helvetica,sans-Serif" font-size="14.00" fill="white">SW1</text>
</g>
<!-- R4 -->
<g id="node6" class="node"><title>R4</title>
<polygon fill="#006699" stroke="#006699" points="257.542,-347 181.542,-347 181.542,-274 257.542,-274 257.542,-347"/>
<text text-anchor="middle" x="219.542" y="-306.8" font-family="Helvetica,sans-Serif" font-size="14.00" fill="white">R4</text>
</g>
<!-- SW1&#45;&#45;R4 -->
<g id="edge3" class="edge"><title>SW1&#45;&#45;R4</title>
<path fill="none" stroke="green" stroke-dasharray="5,2" d="M336.627,-223.2C333.364,-234.627 328.321,-246.712 320.542,-256 304.233,-275.472 278.983,-288.847 257.81,-297.354"/>
<text text-anchor="middle" x="380.542" y="-244.8" font-family="Courier,monospace" font-size="14.00" fill="white"> &#160;&#160;&#160;&#160;&#160;&#160;&#160;&#160;&#160;&#160;&#160;</text>
<text text-anchor="middle" x="286.81" y="-286.154" font-family="Courier,monospace" font-size="14.00" fill="white">Eth 0/4</text>
<text text-anchor="middle" x="307.627" y="-227" font-family="Courier,monospace" font-size="14.00" fill="white">Eth 0/0</text>
</g>
<!-- R6 -->
<g id="node2" class="node"><title>R6</title>
<polygon fill="#006699" stroke="#006699" points="151.542,-223 75.5416,-223 75.5416,-150 151.542,-150 151.542,-223"/>
<text text-anchor="middle" x="113.542" y="-182.8" font-family="Helvetica,sans-Serif" font-size="14.00" fill="white">R6</text>
</g>
<!-- R2 -->
<g id="node3" class="node"><title>R2</title>
<polygon fill="#006699" stroke="#006699" points="135.042,-99 58.0416,-99 58.0416,-26 135.042,-26 135.042,-99"/>
<text text-anchor="middle" x="96.5416" y="-58.8" font-family="Helvetica,sans-Serif" font-size="14.00" fill="white">R2</text>
</g>
<!-- R6&#45;&#45;R2 -->
<g id="edge7" class="edge"><title>R6&#45;&#45;R2</title>
<path fill="none" stroke="green" stroke-dasharray="5,2" d="M134.506,-149.96C138.319,-139.361 140.104,-127.714 136.542,-117 134.492,-110.837 131.426,-104.811 127.885,-99.1556"/>
<text text-anchor="middle" x="188.542" y="-120.8" font-family="Courier,monospace" font-size="14.00" fill="white"> &#160;&#160;&#160;&#160;&#160;&#160;&#160;&#160;&#160;&#160;&#160;</text>
<text text-anchor="middle" x="98.8848" y="-102.956" font-family="Courier,monospace" font-size="14.00" fill="white">Eth 0/1</text>
<text text-anchor="middle" x="105.506" y="-138.76" font-family="Courier,monospace" font-size="14.00" fill="white">Eth 0/2</text>
</g>
<!-- R2&#45;&#45;SW1 -->
<g id="edge5" class="edge"><title>R2&#45;&#45;SW1</title>
<path fill="none" stroke="green" stroke-dasharray="5,2" d="M135.15,-74.7399C165.239,-84.1826 207.628,-99.0045 242.542,-117 261.434,-126.738 280.984,-139.454 297.733,-151.283"/>
<text text-anchor="middle" x="318.542" y="-120.8" font-family="Courier,monospace" font-size="14.00" fill="white"> &#160;&#160;&#160;&#160;&#160;&#160;&#160;&#160;&#160;&#160;&#160;</text>
<text text-anchor="middle" x="268.733" y="-140.083" font-family="Courier,monospace" font-size="14.00" fill="white">Eth 0/0</text>
<text text-anchor="middle" x="164.15" y="-63.5399" font-family="Courier,monospace" font-size="14.00" fill="white">Eth 0/2</text>
</g>
<!-- R2&#45;&#45;R6 -->
<g id="edge10" class="edge"><title>R2&#45;&#45;R6</title>
<path fill="none" stroke="green" stroke-dasharray="5,2" d="M58.007,-83.4059C39.1787,-95.9939 22.5181,-113.367 32.5416,-132 41.7233,-149.068 59.0014,-161.598 75.2489,-170.222"/>
<text text-anchor="middle" x="82.5416" y="-120.8" font-family="Courier,monospace" font-size="14.00" fill="white"> &#160;&#160;&#160;&#160;&#160;&#160;&#160;&#160;&#160;&#160;&#160;</text>
<text text-anchor="middle" x="46.2489" y="-159.022" font-family="Courier,monospace" font-size="14.00" fill="white">Eth 0/2</text>
<text text-anchor="middle" x="29.007" y="-87.2059" font-family="Courier,monospace" font-size="14.00" fill="white">Eth 0/1</text>
</g>
<!-- R5 -->
<g id="node5" class="node"><title>R5</title>
<polygon fill="#006699" stroke="#006699" points="134.542,-471 58.5416,-471 58.5416,-398 134.542,-398 134.542,-471"/>
<text text-anchor="middle" x="96.5416" y="-430.8" font-family="Helvetica,sans-Serif" font-size="14.00" fill="white">R5</text>
</g>
<!-- R2&#45;&#45;R5 -->
<g id="edge4" class="edge"><title>R2&#45;&#45;R5</title>
<path fill="none" stroke="green" stroke-dasharray="5,2" d="M58,-82.9932C45.2644,-91.5563 32.5661,-102.911 25.5416,-117 22.5669,-122.966 24.7724,-125.378 25.5416,-132 36.8961,-229.752 68.2983,-341.816 85.2841,-397.779"/>
<text text-anchor="middle" x="97.5416" y="-244.8" font-family="Courier,monospace" font-size="14.00" fill="white"> &#160;&#160;&#160;&#160;&#160;&#160;&#160;&#160;&#160;&#160;&#160;</text>
<text text-anchor="middle" x="56.2841" y="-386.579" font-family="Courier,monospace" font-size="14.00" fill="white">Eth 0/1</text>
<text text-anchor="middle" x="29" y="-71.7932" font-family="Courier,monospace" font-size="14.00" fill="white">Eth 0/0</text>
</g>
<!-- R3 -->
<g id="node4" class="node"><title>R3</title>
<polygon fill="#006699" stroke="#006699" points="443.042,-99 366.042,-99 366.042,-26 443.042,-26 443.042,-99"/>
<text text-anchor="middle" x="404.542" y="-58.8" font-family="Helvetica,sans-Serif" font-size="14.00" fill="white">R3</text>
</g>
<!-- R3&#45;&#45;SW1 -->
<g id="edge9" class="edge"><title>R3&#45;&#45;SW1</title>
<path fill="none" stroke="green" stroke-dasharray="5,2" d="M395.511,-99.2453C392.135,-110.069 387.811,-121.788 382.542,-132 379.457,-137.977 375.717,-143.993 371.777,-149.721"/>
<text text-anchor="middle" x="439.542" y="-120.8" font-family="Courier,monospace" font-size="14.00" fill="white"> &#160;&#160;&#160;&#160;&#160;&#160;&#160;&#160;&#160;&#160;&#160;</text>
<text text-anchor="middle" x="342.777" y="-138.521" font-family="Courier,monospace" font-size="14.00" fill="white">Eth 0/0</text>
<text text-anchor="middle" x="366.511" y="-103.045" font-family="Courier,monospace" font-size="14.00" fill="white">Eth 0/3</text>
</g>
<!-- R5&#45;&#45;R4 -->
<g id="edge2" class="edge"><title>R5&#45;&#45;R4</title>
<path fill="none" stroke="green" stroke-dasharray="5,2" d="M89.8247,-397.821C89.5072,-386.523 91.2265,-374.513 97.5416,-365 116.153,-336.965 153.019,-323.515 181.376,-317.128"/>
<text text-anchor="middle" x="147.542" y="-368.8" font-family="Courier,monospace" font-size="14.00" fill="white"> &#160;&#160;&#160;&#160;&#160;&#160;&#160;&#160;&#160;&#160;&#160;</text>
<text text-anchor="middle" x="152.376" y="-305.928" font-family="Courier,monospace" font-size="14.00" fill="white">Eth 0/1</text>
<text text-anchor="middle" x="118.825" y="-386.621" font-family="Courier,monospace" font-size="14.00" fill="white">Eth 0/1</text>
</g>
<!-- R4&#45;&#45;SW1 -->
<g id="edge8" class="edge"><title>R4&#45;&#45;SW1</title>
<path fill="none" stroke="green" stroke-dasharray="5,2" d="M210.1,-273.841C209.08,-262.545 210.235,-250.53 216.542,-241 234.51,-213.849 269.332,-200.436 297.823,-193.833"/>
<text text-anchor="middle" x="266.542" y="-244.8" font-family="Courier,monospace" font-size="14.00" fill="white"> &#160;&#160;&#160;&#160;&#160;&#160;&#160;&#160;&#160;&#160;&#160;</text>
<text text-anchor="middle" x="268.823" y="-182.633" font-family="Courier,monospace" font-size="14.00" fill="white">Eth 0/0</text>
<text text-anchor="middle" x="181.1" y="-262.641" font-family="Courier,monospace" font-size="14.00" fill="white">Eth 0/4</text>
</g>
<!-- R4&#45;&#45;R5 -->
<g id="edge6" class="edge"><title>R4&#45;&#45;R5</title>
<path fill="none" stroke="green" stroke-dasharray="5,2" d="M213.627,-347.2C210.364,-358.627 205.321,-370.712 197.542,-380 181.233,-399.472 155.983,-412.847 134.81,-421.354"/>
<text text-anchor="middle" x="257.542" y="-368.8" font-family="Courier,monospace" font-size="14.00" fill="white"> &#160;&#160;&#160;&#160;&#160;&#160;&#160;&#160;&#160;&#160;&#160;</text>
<text text-anchor="middle" x="163.81" y="-410.154" font-family="Courier,monospace" font-size="14.00" fill="white">Eth 0/1</text>
<text text-anchor="middle" x="184.627" y="-351" font-family="Courier,monospace" font-size="14.00" fill="white">Eth 0/1</text>
</g>
<!-- R1 -->
<g id="node7" class="node"><title>R1</title>
<polygon fill="#006699" stroke="#006699" points="566.042,-99 489.042,-99 489.042,-26 566.042,-26 566.042,-99"/>
<text text-anchor="middle" x="527.542" y="-58.8" font-family="Helvetica,sans-Serif" font-size="14.00" fill="white">R1</text>
</g>
<!-- R1&#45;&#45;SW1 -->
<g id="edge1" class="edge"><title>R1&#45;&#45;SW1</title>
<path fill="none" stroke="green" stroke-dasharray="5,2" d="M515.961,-99.3524C510.69,-111.061 503.377,-123.281 493.542,-132 463.676,-158.475 419.847,-172.079 387.092,-178.923"/>
<text text-anchor="middle" x="556.542" y="-120.8" font-family="Courier,monospace" font-size="14.00" fill="white"> &#160;&#160;&#160;&#160;&#160;&#160;&#160;&#160;&#160;&#160;&#160;</text>
<text text-anchor="middle" x="416.092" y="-167.723" font-family="Courier,monospace" font-size="14.00" fill="white">Eth 0/0</text>
<text text-anchor="middle" x="486.961" y="-103.152" font-family="Courier,monospace" font-size="14.00" fill="white">Eth 0/1</text>
</g>
</g>
</svg>
